<svg width="512" height="512" viewBox="0 0 512 512" fill="none" xmlns="http://www.w3.org/2000/svg">
<g clip-path="url(#clip0_2002_341)">
<mask id="mask0_2002_341" style="mask-type:luminance" maskUnits="userSpaceOnUse" x="0" y="0" width="512" height="512">
<path d="M512 0H0V512H512V0Z" fill="white"/>
</mask>
<g mask="url(#mask0_2002_341)">
<path d="M305.893 70.0576C316.452 74.3006 332.871 83.3476 349.084 83.5426C386.999 83.9986 410.272 99.3156 423.26 117.908C438.174 139.656 437.363 169.384 438.743 189.626C440.123 209.868 446.874 222.375 444.059 260.49C443.539 267.534 442.765 273.971 444.589 282.953C444.589 282.953 442.532 287.201 437.282 291.778C429.042 298.963 409.687 311.961 381.336 305.62C379.999 296.75 368 280.499 365.541 257.416C282.75 234.999 305.893 70.0576 305.893 70.0576Z" fill="url(#paint0_linear_2002_341)"/>
<g opacity="0.4">
<path d="M371.849 212.386L379.833 181.454C379.833 181.454 390.469 151.897 394.209 147.159C397.949 142.421 391.526 178.15 382.867 193.114C382.867 193.114 389.833 188.036 402.851 173.442C404.279 171.841 391.051 197.489 377.834 207.815C377.834 207.815 382.054 207.401 395.333 197.778C397.363 196.307 391.097 205.228 383.544 212.017C379.762 215.417 377.161 220.127 375.165 225.617C372.949 231.712 368.341 255.49 368.341 255.49L371.849 212.386Z" fill="url(#paint1_radial_2002_341)"/>
</g>
<path d="M311.446 76.2969C319.25 80.6249 338.625 88.2499 351.041 88.5089C391.659 89.3559 408.78 107.903 418.76 121.972C433.5 142.75 432.736 177.226 432.736 190.467C432.736 203.708 441.625 224.749 438.447 260.141C436.862 277.79 439.017 284.486 439.017 284.486" stroke="url(#paint2_linear_2002_341)" stroke-width="7.268" stroke-linecap="round" stroke-linejoin="round"/>
<g opacity="0.5">
<path d="M379.137 168.437C379.137 168.437 393.139 147.405 394.876 147.491C396.613 147.577 386.942 180.883 383.096 193.446C382.287 196.088 400.739 177.439 401.607 176.839C402.476 176.239 391.84 194.479 385.16 203.38C382.716 206.637 385.16 248.161 389.397 264.691C394.111 283.084 393.206 297.64 418.839 290.963C424.939 289.374 407.979 307.582 403.563 312.311C390.75 313.499 381.75 307.999 380.944 305.316C377.867 295.076 366 272.249 365.783 257.471C365.54 240.88 369.696 209.222 369.696 209.222C369.696 209.222 379.339 193.155 379.137 168.437Z" fill="url(#paint3_linear_2002_341)"/>
</g>
<path d="M444.589 282.955C442.765 273.973 443.539 267.535 444.059 260.491C446.874 222.375 440.373 209.869 438.993 189.627C437.613 169.385 438.05 139.657 423.135 117.909C410.147 99.3166 387.249 84.1256 349.334 83.4196C339.992 83.2456 316.452 74.3016 305.893 70.0586" stroke="#1E262D" stroke-width="7.268" stroke-linecap="round" stroke-linejoin="round"/>
<path d="M381.336 305.621C379.371 294.394 370.637 286.05 365.216 257.417" stroke="#0A0D0F" stroke-width="7.268" stroke-linecap="round" stroke-linejoin="round"/>
<g opacity="0.1">
<path d="M358.192 104.74C348.997 113.491 354.179 133.875 369.767 150.272C385.355 166.669 405.444 172.867 414.639 164.117C423.834 155.367 418.652 134.983 403.064 118.586C387.477 102.189 367.387 95.9902 358.192 104.74Z" fill="url(#paint4_radial_2002_341)"/>
</g>
<g opacity="0.5">
<path d="M403.357 173.442C406.58 169.184 410.984 163.204 410.984 160.039C410.984 156.874 391.301 181.454 383.372 193.114C383.372 193.114 396.721 182.211 403.357 173.442Z" fill="url(#paint5_radial_2002_341)"/>
</g>
<path d="M205.357 69.5576C194.798 73.8006 172.156 83.4146 160.666 84.0426C124.876 85.9986 99.7276 99.9406 86.7396 118.533C63.0006 151.75 71.5116 170.134 70.1316 190.376C68.7516 210.618 62.6256 225 65.9406 261.24C66.5836 268.274 66.7346 278.471 64.9106 287.453C64.9106 287.453 121.251 306 128.414 301.87C131.001 293.75 143.25 274.499 144.709 257.916C146.75 249.749 205.357 69.5576 205.357 69.5576Z" fill="url(#paint6_linear_2002_341)"/>
<path d="M203.429 74.9219C189.75 80.2509 176.187 88.1079 158.959 89.1339C117.125 91.6259 98.7989 110.621 90.2399 122.722C69.0009 152.751 76.0129 177.976 76.0129 191.217C76.0129 204.458 69.8749 229.375 72.0529 253.891C73.6209 271.542 70.4829 288.986 70.4829 288.986" stroke="url(#paint7_linear_2002_341)" stroke-width="7.268" stroke-linecap="round" stroke-linejoin="round"/>
<g opacity="0.4">
<path d="M140.058 212.386L132.074 181.454C132.074 181.454 121.438 151.897 117.698 147.159C113.958 142.421 120.382 178.15 129.04 193.114C129.04 193.114 122.074 188.036 109.056 173.442C107.628 171.841 120.856 197.489 134.073 207.815C134.073 207.815 129.853 207.401 116.574 197.778C114.544 196.307 120.81 205.228 128.363 212.017C132.145 215.417 134.746 220.127 136.742 225.617C138.958 231.712 140.316 250.49 140.316 250.49L140.058 212.386Z" fill="url(#paint8_radial_2002_341)"/>
</g>
<path d="M64.9108 287.453C66.7348 278.471 66.6608 268.267 65.9408 261.24C62.2508 225.25 68.7518 210.618 70.1318 190.376C71.5118 170.134 63.0008 151 86.7398 118.533C99.7278 99.9406 127.501 84.8736 160.666 84.0426C168.634 83.8426 194.798 73.8016 205.357 69.5586" stroke="#1E262D" stroke-width="7.268" stroke-linecap="round" stroke-linejoin="round"/>
<path d="M128.663 301.87C130.628 290.643 138.862 286.549 144.283 257.916" stroke="#0A0D0F" stroke-width="7.268" stroke-linecap="round" stroke-linejoin="round"/>
<g opacity="0.07">
<path d="M115.85 187.012C128.685 188.71 136.048 213.358 132.296 242.064C128.544 270.77 115.097 292.665 102.262 290.966C89.4269 289.268 82.0634 264.62 85.8159 235.914C89.5683 207.208 103.015 185.314 115.85 187.012Z" fill="url(#paint9_radial_2002_341)"/>
</g>
<g opacity="0.5">
<path d="M109.056 173.442C105.833 169.184 101.429 163.204 101.429 160.039C101.429 156.874 121.112 181.454 129.041 193.114C129.041 193.114 115.692 182.211 109.056 173.442Z" fill="url(#paint10_radial_2002_341)"/>
</g>
<g opacity="0.5">
<path d="M136.363 171.187C136.363 171.187 122.361 150.155 120.624 150.241C118.887 150.327 128.12 183.633 131.966 196.196C132.775 198.838 114.761 180.189 113.893 179.589C113.024 178.989 123.659 197.229 130.339 206.13C132.783 209.387 130.339 250.911 126.103 267.441C121.389 285.834 121.301 300.207 96.4106 293.713C102.426 295.707 124.426 305.208 127.869 306.217C128 301.999 128.776 296.1 131.056 290.941C135.378 281.161 145.735 265.033 144.717 248.471C143.699 231.909 145.804 211.972 145.804 211.972C145.804 211.972 136.161 195.905 136.363 171.187Z" fill="url(#paint11_linear_2002_341)"/>
</g>
<g opacity="0.1">
<path d="M153.908 104.484C164.359 114.18 160.315 135.446 144.876 151.985C129.437 168.523 108.452 174.069 98.0016 164.373C87.5513 154.677 91.5948 133.41 107.033 116.872C122.472 100.334 143.458 94.7882 153.908 104.484Z" fill="url(#paint12_radial_2002_341)"/>
</g>
<path d="M370.034 210.449C372.544 251.493 358.749 310.75 350.465 329.494C346.18 339.19 346.485 357.199 349.415 382.745C352.355 408.291 351.963 447.396 348.984 451.046C339.185 463.034 312.442 471.003 256 471.003C199.558 471.003 171.814 463.784 162.015 451.796C159.035 448.146 156.646 415.041 159.585 389.495C162.515 363.949 161.704 343.963 160.034 333.494C158.354 323.025 135.25 275.75 141.966 210.449C141.966 210.449 118.5 164.5 153.193 130.426C166.184 117.667 175.753 107.02 194.288 91.0619L190.508 76.0259C190.508 76.0259 197.452 70.0309 206.117 67.8089C214.782 65.5869 255 69.2449 255 69.2449C255 69.2449 301.634 66.8389 305.893 67.8089C310.152 68.7789 321.37 76.7979 321.37 76.7979L317.711 91.0629C344.748 115.619 349.5 122.001 359.763 131.63C391.837 161.722 370.034 210.449 370.034 210.449Z" fill="url(#paint13_linear_2002_341)"/>
<g opacity="0.05">
<path d="M262.045 466.519C231.777 473.88 204.534 425.744 201.196 359.004C197.857 292.264 219.687 232.193 249.955 224.831C280.222 217.469 307.466 265.606 310.804 332.346C314.143 399.086 292.312 459.157 262.045 466.519Z" fill="url(#paint14_radial_2002_341)"/>
</g>
<path d="M256 104.783C200.238 104.403 195.948 70.578 206.117 67.808C216.825 66.248 232.613 69.248 256 69.248C279.387 69.248 295.175 66.248 305.883 67.808C316.052 70.578 311.762 104.403 256 104.783Z" fill="url(#paint15_linear_2002_341)"/>
<g opacity="0.25">
<path d="M207.705 230.696C195.347 232.246 173.09 236.264 168.141 246.153C163.192 256.042 178.251 288.008 189.229 313.544C191.619 319.103 176.351 303.415 175.111 303.725C173.881 304.035 181.137 380.046 194.66 400.132C198.204 405.395 176.34 389.932 174.539 389.8C172.75 389.669 173.17 451.518 181.615 459.751C170.484 457.977 164.505 455.674 161.135 451.545C158.155 447.895 156.514 414.79 159.454 389.244C162.384 363.698 162.701 342.468 159.903 332.243C154.5 312.499 136.5 274.499 140.835 210.948C140.835 210.948 130.006 190.561 132.306 168.604C136.445 176.793 146.707 194.823 161.552 204.509C184.588 219.54 222.573 218.587 236.461 219.537C241.4 219.877 220.073 229.156 207.705 230.696Z" fill="url(#paint16_linear_2002_341)"/>
</g>
<g opacity="0.34">
<path d="M145.071 217.29C145.071 217.29 140.226 258.104 163.059 325.805C166.75 336.75 167.535 353.263 166.08 389.925C164.5 429.75 165.676 445.098 166.515 453.748" stroke="url(#paint17_linear_2002_341)" stroke-width="7.268" stroke-linecap="round" stroke-linejoin="round"/>
</g>
<g opacity="0.21">
<path d="M138.714 204.005C130.565 180.916 125.56 153.167 150.598 129.305C170.376 110.456 179.954 101.785 193.288 88.0625" stroke="url(#paint18_linear_2002_341)" stroke-width="4.845" stroke-linecap="round" stroke-linejoin="round"/>
</g>
<g opacity="0.31">
<path d="M321.371 76.7979C324.231 80.8869 319.011 118.362 257 119.382H255C192.989 118.362 187.769 80.8869 190.629 76.7979" stroke="url(#paint19_linear_2002_341)" stroke-width="4.845" stroke-linecap="round" stroke-linejoin="round"/>
</g>
<path d="M140.714 206.005C132.565 182.916 127.56 155.166 152.598 131.304C172.376 112.455 180.954 104.783 194.288 91.0605" stroke="url(#paint20_linear_2002_341)" stroke-width="4.845" stroke-linecap="round" stroke-linejoin="round"/>
<g opacity="0.25">
<path d="M302.971 230.196C315.329 231.746 337.586 235.764 342.535 245.653C347.484 255.542 327.675 290.508 316.697 316.044C314.307 321.603 330.325 304.915 331.565 305.225C332.795 305.535 330.666 380.395 319.697 401.982C316.827 407.641 333.625 390.614 335.395 390.254C337.155 389.904 339.844 451.335 332.475 460.544C338.5 457.25 345.421 454.924 348.791 450.795C351.771 447.145 351.912 408.04 348.972 382.494C346.042 356.948 346.545 339.714 350.773 329.993C356.75 316.249 372.351 251.492 369.841 210.448C369.841 210.448 380.67 190.061 378.37 168.104C374.231 176.293 363.969 194.323 349.124 204.009C326.088 219.04 288.103 218.087 274.215 219.037C269.276 219.377 290.603 228.656 302.971 230.196Z" fill="url(#paint21_linear_2002_341)"/>
</g>
<g opacity="0.21">
<path d="M373.286 204.005C381.435 180.916 386.44 153.167 361.402 129.305C341.624 110.456 332.046 101.785 318.712 88.0625" stroke="url(#paint22_linear_2002_341)" stroke-width="4.845" stroke-linecap="round" stroke-linejoin="round"/>
</g>
<path d="M371.286 206.006C379.435 182.917 384.44 155.167 359.402 131.305C339.624 112.456 331.046 104.784 317.712 91.0615" stroke="url(#paint23_linear_2002_341)" stroke-width="4.845" stroke-linecap="round" stroke-linejoin="round"/>
<g opacity="0.53">
<path d="M256 116.382C193.989 115.362 188.769 77.8866 191.629 73.7976C194.999 71.9176 197.798 70.3576 200.558 69.2476C202.238 68.5676 204.077 68.1076 206.107 67.8076C195.948 70.5976 200.258 104.403 256 104.783C311.742 104.403 316.052 70.5976 305.893 67.8076C307.923 68.1076 309.762 68.5676 311.442 69.2476C314.202 70.3576 317.001 71.9176 320.371 73.7976C323.23 77.8866 318.011 115.362 256 116.382Z" fill="url(#paint24_radial_2002_341)"/>
</g>
<path d="M256 116.382C193.989 115.362 188.769 77.8866 191.629 73.7976C194.999 71.9176 197.798 70.3576 200.558 69.2476C202.238 68.5676 204.077 68.1076 206.107 67.8076C195.948 70.5976 200.258 104.403 256 104.783C311.742 104.403 316.052 70.5976 305.893 67.8076C307.923 68.1076 309.762 68.5676 311.442 69.2476C314.202 70.3576 317.001 71.9176 320.371 73.7976C323.23 77.8866 318.011 115.362 256 116.382Z" stroke="#273138" stroke-width="4.845" stroke-linecap="round" stroke-linejoin="round"/>
<path d="M125.69 164.129C125.69 164.129 131.244 172.184 136.431 186.259C142.528 202.803 147.337 215.276 163.728 226.493C163.728 226.493 144.431 227.811 136.748 206.281C131.19 190.706 128.571 175.43 125.69 164.129Z" fill="#11171C"/>
<g opacity="0.34">
<path d="M364.179 219.041C364.179 219.041 369.751 258.25 347.692 320.056C344.252 329.695 340.995 347.05 343.17 383.676C345.001 414.5 343.824 446.599 342.985 455.249" stroke="url(#paint25_linear_2002_341)" stroke-width="7.268" stroke-linecap="round" stroke-linejoin="round"/>
</g>
<path d="M386.31 164.129C386.31 164.129 380.756 172.184 375.569 186.259C369.472 202.803 364.663 215.276 348.272 226.493C348.272 226.493 367.569 227.812 375.252 206.282C380.81 190.707 383.429 175.43 386.31 164.129Z" fill="#11171C"/>
<g opacity="0.6">
<path d="M205.935 86.0715C202.222 79.4955 203.859 73.4695 208.047 72.4315C218.341 71.0665 233.518 73.6915 256 73.6915C278.482 73.6915 293.659 71.0665 303.953 72.4315C308.157 73.4735 309.79 79.5405 306.023 86.1445" stroke="url(#paint26_linear_2002_341)" stroke-width="7.268" stroke-linecap="round" stroke-linejoin="round"/>
</g>
<g opacity="0.3">
<path d="M264.061 73.6924V92.0964H247.387V73.6924H264.061Z" stroke="black" stroke-width="4.845" stroke-linecap="round" stroke-linejoin="round"/>
</g>
<path d="M265.245 71.0791V90.1211H246.203V71.0791H265.245Z" fill="url(#paint27_linear_2002_341)"/>
<path d="M265.245 71.0791V90.1211H246.203V71.0791H265.245Z" stroke="url(#paint28_linear_2002_341)" stroke-width="2.423" stroke-linecap="round" stroke-linejoin="round"/>
<g opacity="0.16">
<path d="M246.528 73.542C249.532 73.635 252.686 73.692 256 73.692C259.019 73.692 261.907 73.645 264.668 73.566" stroke="white" stroke-width="7.268" stroke-linejoin="round"/>
</g>
<path d="M253.686 78.8594C253.247 79.1144 252.062 79.0584 251.354 79.1174C250.339 79.1404 249.954 79.7134 250.46 80.3244C251.257 81.0854 251.686 81.4194 252.211 81.5074C252.736 81.5954 254.723 81.3294 255.342 81.2464C255.961 81.1644 256.323 81.2584 255.641 81.5444C254.959 81.8304 254.177 82.2204 253.67 82.4564C253.163 82.6924 252.499 82.8374 252.271 83.8654C252.043 84.8934 252.149 84.4544 252.068 84.8294C251.987 85.2044 252.064 86.1634 253.088 85.6814C254.112 85.1994 254.519 85.0154 254.96 84.8004C255.401 84.5844 255.563 84.5894 256.121 84.9034C256.679 85.2174 257.277 85.5864 257.762 85.8564C258.246 86.1264 259.038 86.0364 258.97 85.1314C258.902 84.2254 258.785 83.2014 258.74 82.7584C258.695 82.3164 258.745 82.4024 259.043 82.1654C259.341 81.9284 260.239 81.1454 260.772 80.6554C261.305 80.1654 261.495 79.4364 260.499 79.3414C259.503 79.2464 258.967 79.1404 258.437 79.0854C257.907 79.0304 257.741 79.0484 257.433 78.3584C257.125 77.6684 256.84 77.1014 256.579 76.4844C256.318 75.8674 255.677 75.5574 255.231 76.3664C254.785 77.1754 254.445 77.8714 254.251 78.1974C254.057 78.5234 253.833 78.7744 253.686 78.8594Z" fill="url(#paint29_linear_2002_341)"/>
<path d="M265.245 71.0791V90.1211H246.203V71.0791H265.245Z" stroke="url(#paint30_linear_2002_341)" stroke-width="2.423" stroke-linecap="round" stroke-linejoin="round"/>
<path d="M256 104.783C200.238 104.403 195.948 70.578 206.117 67.808C216.825 66.248 232.613 69.248 256 69.248C277.877 69.248 293.104 66.623 303.744 67.561C304.478 67.626 305.192 67.707 305.883 67.808C316.052 70.578 311.762 104.403 256 104.783Z" stroke="#141C21" stroke-width="7.268" stroke-linecap="round" stroke-linejoin="round"/>
<g opacity="0.31">
<path d="M351.073 437.911C351.073 437.911 337.632 457.425 256.053 457.425C174.474 457.425 159.283 436.661 159.283 436.661" stroke="url(#paint31_linear_2002_341)" stroke-width="4.845" stroke-linecap="round" stroke-linejoin="round"/>
</g>
<path d="M351.073 434.911C351.073 434.911 337.632 454.425 256.053 454.425C174.474 454.425 159.283 433.661 159.283 433.661" stroke="#0D1216" stroke-width="4.845" stroke-linecap="round" stroke-linejoin="round"/>
<path d="M370.034 210.449C372.544 251.493 364 292 350.466 329.994C346.909 339.98 347.561 356.725 349.165 382.389C350.75 407.75 351.964 446.897 348.984 450.546C339.185 462.534 312.442 471.253 256 471.253C199.558 471.253 172 461.25 160.766 451.546C157.201 448.466 158.071 414.929 159.335 389.245C160.75 360.5 162 338.75 159.784 332.494C140.194 277.181 139.456 251.493 141.966 210.449" stroke="url(#paint32_linear_2002_341)" stroke-width="7.268" stroke-linecap="round" stroke-linejoin="round"/>
<g opacity="0.1">
<path d="M275.857 284.159C275.857 362.512 266.966 426.03 256 426.03C245.033 426.03 236.143 362.512 236.143 284.159C236.143 205.806 245.033 142.288 256 142.288C266.966 142.288 275.857 205.806 275.857 284.159Z" fill="url(#paint33_radial_2002_341)"/>
</g>
<g opacity="0.15">
<path d="M207.54 337.581C231.628 391.091 244.229 437.593 235.685 441.447C227.141 445.3 200.687 405.043 176.598 351.533C152.51 298.023 139.909 251.521 148.453 247.668C156.997 243.814 183.451 284.071 207.54 337.581Z" fill="url(#paint34_radial_2002_341)"/>
</g>
<g opacity="0.15">
<path d="M303.778 336.99C280.129 390.696 268.668 437.621 278.181 441.8C287.693 445.978 314.575 405.829 338.224 352.124C361.873 298.418 373.334 251.493 363.822 247.314C354.309 243.135 327.427 283.284 303.778 336.99Z" fill="url(#paint35_radial_2002_341)"/>
</g>
<g opacity="0.2">
<path d="M256 249.961C163.359 249.961 88.2588 240.024 88.2588 227.765C88.2588 215.506 163.359 205.568 256 205.568C348.641 205.568 423.741 215.506 423.741 227.765C423.741 240.024 348.641 249.961 256 249.961Z" fill="url(#paint36_radial_2002_341)"/>
</g>
<g opacity="0.15">
<path d="M258 304.158C196.536 304.158 147 294.321 146.709 282.486C146.352 267.996 196.536 260.813 258 260.813C319.464 260.813 369.052 270.655 369.291 282.486C369.5 292.855 319.464 304.158 258 304.158Z" fill="url(#paint37_radial_2002_341)"/>
</g>
<g opacity="0.15">
<path d="M258 359.511C196.536 359.511 148.748 351.528 146.709 335.162C145 321.445 196.536 310.813 258 310.813C319.464 310.813 370.018 321.943 369.291 335.162C368.5 349.545 319.464 359.511 258 359.511Z" fill="url(#paint38_radial_2002_341)"/>
</g>
<g opacity="0.03">
<path d="M208.675 344.903C207.404 363.035 217.545 380.219 231.324 383.283C245.104 386.347 257.304 374.133 258.575 356.001C259.846 337.869 249.706 320.685 235.927 317.621C222.147 314.557 209.946 326.771 208.675 344.903Z" fill="url(#paint39_radial_2002_341)"/>
</g>
<g opacity="0.3">
<path d="M243.238 280.082C235.936 286.208 203.047 292.319 188.106 284.868C172.308 276.99 173.815 239.933 204.806 236.001C248.395 230.47 254.481 270.65 243.238 280.082Z" fill="url(#paint40_linear_2002_341)"/>
</g>
<g opacity="0.3">
<path d="M241.797 330.107C235.826 334.474 211.153 336.84 200.853 329.831C185.062 319.084 193.748 291.755 216.181 290.314C247.733 288.288 254.47 320.839 241.797 330.107Z" fill="url(#paint41_linear_2002_341)"/>
</g>
<g opacity="0.05">
<path d="M261.357 241.562C263.852 257.375 248.052 273.019 226.067 276.505C204.081 279.99 184.235 269.997 181.74 254.184C179.245 238.37 195.045 222.726 217.03 219.241C239.016 215.755 258.862 225.749 261.357 241.562Z" fill="url(#paint42_radial_2002_341)"/>
</g>
<g opacity="0.04">
<path d="M261.309 292.714C262.533 304.65 248.927 315.829 230.92 317.683C212.913 319.537 197.323 311.363 196.1 299.427C194.876 287.49 208.482 276.311 226.489 274.457C244.496 272.603 260.086 280.777 261.309 292.714Z" fill="url(#paint43_radial_2002_341)"/>
</g>
<g opacity="0.3">
<path d="M268.508 280.082C275.81 286.208 308.699 292.319 323.64 284.868C339.438 276.99 337.931 239.933 306.94 236.001C263.351 230.47 257.265 270.65 268.508 280.082Z" fill="url(#paint44_linear_2002_341)"/>
</g>
<g opacity="0.3">
<path d="M269.948 330.107C275.919 334.474 300.592 336.84 310.892 329.831C326.683 319.084 317.997 291.755 295.564 290.314C264.012 288.288 257.275 320.839 269.948 330.107Z" fill="url(#paint45_linear_2002_341)"/>
</g>
<g opacity="0.05">
<path d="M250.842 240.407C247.935 255.625 263.311 271.305 285.185 275.428C307.059 279.551 327.149 270.557 330.056 255.339C332.963 240.121 317.588 224.441 295.714 220.318C273.84 216.195 253.749 225.188 250.842 240.407Z" fill="url(#paint46_radial_2002_341)"/>
</g>
<g opacity="0.04">
<path d="M250.924 290.914C248.952 302.946 261.845 315.009 279.721 317.857C297.597 320.705 313.689 313.258 315.661 301.225C317.633 289.192 304.74 277.13 286.864 274.282C268.988 271.434 252.897 278.881 250.924 290.914Z" fill="url(#paint47_radial_2002_341)"/>
</g>
<g opacity="0.03">
<path d="M304.841 344.903C306.164 363.035 295.604 380.219 281.255 383.283C266.906 386.347 254.2 374.133 252.877 356.001C251.553 337.869 262.114 320.685 276.463 317.621C290.812 314.557 303.517 326.771 304.841 344.903Z" fill="url(#paint48_radial_2002_341)"/>
</g>
<g opacity="0.05">
<path d="M397.441 174.4C405.767 209.596 345.129 235.348 269.647 239.23C194.165 243.112 126.225 217.727 117.899 182.531C109.573 147.335 164.015 115.655 239.497 111.773C314.98 107.891 389.115 139.204 397.441 174.4Z" fill="url(#paint49_radial_2002_341)"/>
</g>
<g opacity="0.03">
<path d="M248.79 193.602C253.932 227.883 292.832 247.989 331.129 238.514C369.426 229.04 392.618 193.573 387.476 159.292C382.334 125.011 347.12 104.901 308.823 114.376C270.526 123.851 243.648 159.321 248.79 193.602Z" fill="url(#paint50_radial_2002_341)"/>
</g>
<g opacity="0.03">
<path d="M262.824 169.572C267.134 203.996 238.95 234.979 199.872 238.776C160.794 242.573 120.092 217.752 115.782 183.328C111.472 148.904 145.184 117.915 184.262 114.118C223.34 110.321 258.514 135.148 262.824 169.572Z" fill="url(#paint51_radial_2002_341)"/>
</g>
<path d="M230.262 185.283L268.851 176.073C270.685 175.636 272.343 177.18 271.808 178.829L263.198 205.367C262.508 207.492 259.613 208.244 257.785 206.774L246.24 197.487C245.073 196.548 245.136 194.879 246.372 194.015L261.136 183.704C261.648 183.346 261.143 182.627 260.569 182.895L242.131 191.514C240.207 192.414 237.919 192.406 236.002 191.492L229.851 188.562C228.274 187.811 228.539 185.695 230.262 185.283Z" fill="url(#paint52_linear_2002_341)"/>
<path d="M230.262 181.44L268.851 171.289C270.685 170.807 272.343 172.509 271.808 174.326L263.198 203.576C262.508 205.918 259.613 206.747 257.785 205.127L246.24 194.89C245.073 193.856 245.136 192.016 246.372 191.064L261.136 179.699C261.648 179.305 261.143 178.513 260.569 178.808L242.131 188.308C240.207 189.299 237.919 189.29 236.002 188.284L229.851 185.054C228.274 184.226 228.539 181.894 230.262 181.44Z" fill="url(#paint53_linear_2002_341)"/>
<mask id="mask1_2002_341" style="mask-type:luminance" maskUnits="userSpaceOnUse" x="228" y="171" width="44" height="35">
<path d="M230.262 181.44L268.851 171.289C270.685 170.807 272.343 172.509 271.808 174.326L263.198 203.576C262.508 205.918 259.613 206.747 257.785 205.127L246.24 194.89C245.073 193.856 245.136 192.016 246.372 191.064L261.136 179.699C261.648 179.305 261.143 178.513 260.569 178.808L242.131 188.308C240.207 189.299 237.919 189.29 236.002 188.284L229.851 185.054C228.274 184.226 228.539 181.894 230.262 181.44Z" fill="url(#paint54_linear_2002_341)"/>
</mask>
<g mask="url(#mask1_2002_341)">
<path d="M230.262 181.44L268.851 171.289C270.685 170.807 272.343 172.509 271.808 174.326L263.198 203.576C262.508 205.918 259.613 206.747 257.785 205.127L246.24 194.89C245.073 193.856 245.136 192.016 246.372 191.064L261.136 179.699C261.648 179.305 261.143 178.513 260.569 178.808L242.131 188.308C240.207 189.299 237.919 189.29 236.002 188.284L229.851 185.054C228.274 184.226 228.539 181.894 230.262 181.44Z" fill="url(#paint55_linear_2002_341)"/>
</g>
<path d="M128.163 301.495C127.229 305.809 126 310.875 126.413 318.787C128.298 354.853 123.049 373.682 117.061 400.256C111.073 426.829 112.32 457.267 108.827 458.894C91.1989 467.104 64.8839 461.996 65.0369 456.023C65.7979 426.347 63.9139 403.999 60.5459 360.209C57.1779 316.419 61.2769 302.701 65.5349 285.829C65.5349 285.829 79.9719 284.66 97.5889 288.019C119.46 292.189 128.163 301.495 128.163 301.495Z" fill="url(#paint56_linear_2002_341)"/>
<path d="M70.0897 457.35C70.0897 457.35 67.3757 385.579 65.1597 359.487C60.9997 310.501 71.1067 287.361 71.1067 287.361" stroke="url(#paint57_linear_2002_341)" stroke-width="7.268" stroke-linecap="round" stroke-linejoin="round"/>
<g opacity="0.21">
<path d="M65.1948 446.107C72.9498 452.543 94.4668 454.573 111.323 447.364" stroke="url(#paint58_linear_2002_341)" stroke-width="4.845" stroke-linecap="round" stroke-linejoin="round"/>
</g>
<path d="M65.1948 443.107C72.9498 449.543 94.4668 451.573 111.323 444.364" stroke="#12191F" stroke-width="4.845" stroke-linecap="round" stroke-linejoin="round"/>
<g opacity="0.5">
<path d="M97.5358 288.214C100.301 290.833 101.085 295.018 112.272 307.313C123.994 320.196 114.916 373.138 110.594 391.092C102.394 425.15 104.551 459.583 94.5708 459.051C94.5708 459.051 105.33 459.908 110.378 455.478C113.676 452.584 113.913 411.513 117.862 398.84C123.551 380.583 126.698 352.68 126.687 326.063C126.684 319.052 127.301 305.583 127.888 301.28C123.375 298 115.625 291.25 97.5358 288.214Z" fill="url(#paint59_linear_2002_341)"/>
</g>
<path d="M66.0497 283.752C61.7917 300.624 57.1777 316.419 60.5457 360.209C63.9137 403.999 65.7977 426.347 65.0367 456.023C64.8837 461.996 91.1987 467.104 108.827 458.894C112.32 457.267 111.073 426.829 117.061 400.256C123.049 373.682 128.443 354.845 126.413 318.786C125.981 311.12 127.269 305.669 128.203 301.355" stroke="url(#paint60_linear_2002_341)" stroke-width="7.268" stroke-linecap="round" stroke-linejoin="round"/>
<g opacity="0.07">
<path d="M97.4261 298.588C112.2 299.231 123.449 325.277 122.551 356.765C121.654 388.252 108.95 413.255 94.1758 412.612C79.4016 411.97 68.1528 385.923 69.0505 354.435C69.9481 322.948 82.6524 297.945 97.4261 298.588Z" fill="url(#paint61_radial_2002_341)"/>
</g>
<path d="M445.693 455.809C445.566 453.053 435.479 452.603 424.388 452.771C413.058 452.943 401.889 454.549 402.797 457.407C403.142 458.494 405.061 459.436 407.92 460.187C419.704 463.281 445.875 459.75 445.693 455.809Z" fill="#151C24"/>
<path d="M445.693 455.809C445.566 453.053 435.479 452.603 424.388 452.771C413.058 452.943 401.889 454.549 402.797 457.407C403.142 458.494 405.061 459.436 407.92 460.187C419.704 463.281 445.875 459.75 445.693 455.809Z" stroke="url(#paint62_linear_2002_341)" stroke-width="7.27"/>
<path d="M444.59 282.954C448.848 299.826 454.822 316.42 451.454 360.21C448.086 404 446.202 426.348 446.963 456.024C447.116 461.997 420.801 467.105 403.173 458.895C399.68 457.268 400.927 426.83 394.939 400.257C388.951 373.684 381.557 357.596 383.587 321.537C384.019 313.871 383.271 309.935 382.337 305.621" fill="url(#paint63_linear_2002_341)"/>
<path d="M441.91 457.35C441.91 457.35 440.5 424.5 445.84 360.737C447.805 337.274 448.5 314.25 439.018 284.486" stroke="url(#paint64_linear_2002_341)" stroke-width="7.268" stroke-linecap="round" stroke-linejoin="round"/>
<g opacity="0.21">
<path d="M446.805 446.107C439.05 452.543 417.533 454.573 400.677 447.364" stroke="url(#paint65_linear_2002_341)" stroke-width="4.845" stroke-linecap="round" stroke-linejoin="round"/>
</g>
<path d="M446.805 443.108C442.931 446.323 435.623 448.438 427.177 448.852C418.716 449.266 409.113 447.973 400.677 444.365" stroke="#12191F" stroke-width="4.845" stroke-linecap="round" stroke-linejoin="round"/>
<g opacity="0.5">
<path d="M418.089 291.714C423.863 289.184 414.165 295.518 402.978 307.813C391.256 320.696 400.334 373.638 404.656 391.592C412.856 425.65 408.89 465.056 420.554 462.926C420.554 462.926 408.887 462.985 403.497 458.978C400.5 456.75 398.132 413.243 395.013 400.34C389.25 376.5 381.5 348.75 383.813 321.562C384.589 312.445 384 310.5 382.403 305.047C390.75 302.5 406.313 296.875 418.089 291.714Z" fill="url(#paint66_linear_2002_341)"/>
</g>
<path d="M444.59 282.954C448.848 299.826 454.822 316.42 451.454 360.21C448.086 404 446.202 426.348 446.963 456.024C447.116 461.997 420.801 467.105 403.173 458.895C399.68 457.268 400.927 426.83 394.939 400.257C388.951 373.684 381.557 357.346 383.587 321.287C384.019 313.621 383.021 309.685 382.087 305.371" stroke="url(#paint67_linear_2002_341)" stroke-width="7.268" stroke-linecap="round" stroke-linejoin="round"/>
<g opacity="0.07">
<path d="M414.192 298.624C403.591 299.039 396.062 324.884 397.375 356.351C398.688 387.818 410.322 418.98 420.923 418.565C431.524 418.15 437.078 386.317 435.764 354.85C434.451 323.383 424.793 298.21 414.192 298.624Z" fill="url(#paint68_radial_2002_341)"/>
</g>
<g opacity="0.07">
<path d="M393.447 187.507C382.031 189.688 377.194 214.506 382.644 242.939C388.095 271.372 401.767 292.652 413.183 290.471C424.6 288.29 429.436 263.472 423.986 235.039C418.536 206.606 404.863 185.326 393.447 187.507Z" fill="url(#paint69_radial_2002_341)"/>
</g>
</g>
</g>
<defs>
<linearGradient id="paint0_linear_2002_341" x1="375" y1="287" x2="375" y2="169.19" gradientUnits="userSpaceOnUse">
<stop stop-color="#232D36"/>
<stop offset="0.4" stop-color="#2B353E"/>
<stop offset="0.68" stop-color="#323C46"/>
</linearGradient>
<radialGradient id="paint1_radial_2002_341" cx="0" cy="0" r="1" gradientUnits="userSpaceOnUse" gradientTransform="translate(367.548 213.5) scale(51.0319 51.0319)">
<stop/>
<stop offset="0.45" stop-color="#040402" stop-opacity="0.5"/>
<stop offset="0.9" stop-color="#080804" stop-opacity="0"/>
</radialGradient>
<linearGradient id="paint2_linear_2002_341" x1="375" y1="288" x2="375" y2="74.6679" gradientUnits="userSpaceOnUse">
<stop stop-color="#475B6E"/>
<stop offset="0.24" stop-color="#526272" stop-opacity="0.8"/>
<stop offset="0.49" stop-color="#5C6977" stop-opacity="0.6"/>
</linearGradient>
<linearGradient id="paint3_linear_2002_341" x1="360.771" y1="317.582" x2="429.362" y2="308.041" gradientUnits="userSpaceOnUse">
<stop/>
<stop offset="0.5" stop-color="#040402" stop-opacity="0.5"/>
<stop offset="1" stop-color="#080804" stop-opacity="0"/>
</linearGradient>
<radialGradient id="paint4_radial_2002_341" cx="0" cy="0" r="1" gradientUnits="userSpaceOnUse" gradientTransform="translate(388.155 134.418) rotate(-42.854) scale(20.1913 35.8874)">
<stop stop-color="#ECF7F8"/>
<stop offset="0.52" stop-color="#ECF7F8" stop-opacity="0.5"/>
<stop offset="0.96" stop-color="#ECF7F8" stop-opacity="0"/>
</radialGradient>
<radialGradient id="paint5_radial_2002_341" cx="0" cy="0" r="1" gradientUnits="userSpaceOnUse" gradientTransform="translate(387.856 186.75) scale(28.613)">
<stop stop-color="#475B6E"/>
<stop offset="0.49" stop-color="#526272" stop-opacity="0.5"/>
<stop offset="1" stop-color="#5C6977" stop-opacity="0"/>
</radialGradient>
<linearGradient id="paint6_linear_2002_341" x1="136" y1="287" x2="136" y2="169.19" gradientUnits="userSpaceOnUse">
<stop stop-color="#232D36"/>
<stop offset="0.4" stop-color="#2B353E"/>
<stop offset="0.68" stop-color="#323C46"/>
</linearGradient>
<linearGradient id="paint7_linear_2002_341" x1="136" y1="288.001" x2="136" y2="74.6679" gradientUnits="userSpaceOnUse">
<stop stop-color="#475B6E"/>
<stop offset="0.24" stop-color="#526272" stop-opacity="0.8"/>
<stop offset="0.49" stop-color="#5C6977" stop-opacity="0.6"/>
</linearGradient>
<radialGradient id="paint8_radial_2002_341" cx="0" cy="0" r="1" gradientUnits="userSpaceOnUse" gradientTransform="translate(141 214) scale(101.419 101.419)">
<stop/>
<stop offset="0.45" stop-color="#040402" stop-opacity="0.5"/>
<stop offset="0.9" stop-color="#080804" stop-opacity="0"/>
</radialGradient>
<radialGradient id="paint9_radial_2002_341" cx="0" cy="0" r="1" gradientUnits="userSpaceOnUse" gradientTransform="translate(109.369 238.713) rotate(8.171) scale(21.1121 46.9512)">
<stop stop-color="#F9F7F8"/>
<stop offset="0.47" stop-color="#FBFBFB" stop-opacity="0.5"/>
<stop offset="0.91" stop-color="#FEFFFF" stop-opacity="0"/>
</radialGradient>
<radialGradient id="paint10_radial_2002_341" cx="0" cy="0" r="1" gradientUnits="userSpaceOnUse" gradientTransform="translate(113.75 176.25) scale(21.9433)">
<stop stop-color="#475B6E"/>
<stop offset="0.49" stop-color="#526272" stop-opacity="0.5"/>
<stop offset="1" stop-color="#5C6977" stop-opacity="0"/>
</radialGradient>
<linearGradient id="paint11_linear_2002_341" x1="148.926" y1="314.082" x2="89.5846" y2="304.874" gradientUnits="userSpaceOnUse">
<stop/>
<stop offset="0.5" stop-color="#040402" stop-opacity="0.5"/>
<stop offset="1" stop-color="#080804" stop-opacity="0"/>
</linearGradient>
<radialGradient id="paint12_radial_2002_341" cx="0" cy="0" r="1" gradientUnits="userSpaceOnUse" gradientTransform="translate(124.963 133.416) rotate(42.027) scale(20.5054 34.4657)">
<stop stop-color="#ECF7F8"/>
<stop offset="0.52" stop-color="#ECF7F8" stop-opacity="0.5"/>
<stop offset="0.96" stop-color="#ECF7F8" stop-opacity="0"/>
</radialGradient>
<linearGradient id="paint13_linear_2002_341" x1="255" y1="440" x2="255" y2="137.898" gradientUnits="userSpaceOnUse">
<stop stop-color="#161C23"/>
<stop offset="0.27" stop-color="#1E262E"/>
<stop offset="0.54" stop-color="#26303A"/>
<stop offset="0.62" stop-color="#212B34"/>
<stop offset="0.7" stop-color="#1D262E"/>
<stop offset="0.76" stop-color="#28313A"/>
<stop offset="0.96" stop-color="#323C46"/>
</linearGradient>
<radialGradient id="paint14_radial_2002_341" cx="0" cy="0" r="1" gradientUnits="userSpaceOnUse" gradientTransform="translate(257.238 349.187) scale(47.7988 106.461)">
<stop stop-color="#F9F7F8"/>
<stop offset="0.58" stop-color="#FBFBFB" stop-opacity="0.5"/>
<stop offset="0.96" stop-color="#FEFFFF" stop-opacity="0"/>
</radialGradient>
<linearGradient id="paint15_linear_2002_341" x1="256" y1="106" x2="256" y2="60.151" gradientUnits="userSpaceOnUse">
<stop stop-color="#141C23"/>
<stop offset="0.5" stop-color="#202A33"/>
<stop offset="1" stop-color="#2D3843"/>
</linearGradient>
<linearGradient id="paint16_linear_2002_341" x1="136.5" y1="324.499" x2="244.599" y2="353.339" gradientUnits="userSpaceOnUse">
<stop/>
<stop offset="0.41" stop-color="#040402" stop-opacity="0.6"/>
<stop offset="0.65" stop-color="#080804" stop-opacity="0.2"/>
</linearGradient>
<linearGradient id="paint17_linear_2002_341" x1="153" y1="451" x2="153" y2="215.024" gradientUnits="userSpaceOnUse">
<stop offset="0.29" stop-color="#475B6E"/>
<stop offset="0.62" stop-color="#526272" stop-opacity="0.8"/>
<stop offset="0.97" stop-color="#5C6977" stop-opacity="0.6"/>
</linearGradient>
<linearGradient id="paint18_linear_2002_341" x1="162" y1="205.999" x2="162" y2="87.4615" gradientUnits="userSpaceOnUse">
<stop stop-color="#314B68" stop-opacity="0"/>
<stop offset="0.24" stop-color="#3F576F" stop-opacity="0.5"/>
<stop offset="0.49" stop-color="#4D6477"/>
</linearGradient>
<linearGradient id="paint19_linear_2002_341" x1="255" y1="124" x2="255" y2="76.5699" gradientUnits="userSpaceOnUse">
<stop offset="0.51" stop-color="#4D6477"/>
<stop offset="0.76" stop-color="#3F576F" stop-opacity="0.5"/>
<stop offset="1" stop-color="#314B68" stop-opacity="0"/>
</linearGradient>
<linearGradient id="paint20_linear_2002_341" x1="164" y1="208" x2="164" y2="90.4606" gradientUnits="userSpaceOnUse">
<stop stop-color="#222B33"/>
<stop offset="0.5" stop-color="#242E36"/>
<stop offset="1" stop-color="#273138"/>
</linearGradient>
<linearGradient id="paint21_linear_2002_341" x1="374.176" y1="323.999" x2="266.077" y2="352.839" gradientUnits="userSpaceOnUse">
<stop/>
<stop offset="0.41" stop-color="#040402" stop-opacity="0.6"/>
<stop offset="0.65" stop-color="#080804" stop-opacity="0.2"/>
</linearGradient>
<linearGradient id="paint22_linear_2002_341" x1="349" y1="206" x2="349" y2="87.4605" gradientUnits="userSpaceOnUse">
<stop stop-color="#314B68" stop-opacity="0"/>
<stop offset="0.24" stop-color="#3F576F" stop-opacity="0.5"/>
<stop offset="0.49" stop-color="#4D6477"/>
</linearGradient>
<linearGradient id="paint23_linear_2002_341" x1="347" y1="208" x2="347" y2="90.4615" gradientUnits="userSpaceOnUse">
<stop stop-color="#222B33"/>
<stop offset="0.5" stop-color="#242E36"/>
<stop offset="1" stop-color="#273138"/>
</linearGradient>
<radialGradient id="paint24_radial_2002_341" cx="0" cy="0" r="1" gradientUnits="userSpaceOnUse" gradientTransform="translate(256 93.9996) scale(49.045 49.045)">
<stop offset="0.18" stop-color="#4D6477"/>
<stop offset="0.6" stop-color="#4A6072" stop-opacity="0.5"/>
<stop offset="1" stop-color="#475B6E" stop-opacity="0"/>
</radialGradient>
<linearGradient id="paint25_linear_2002_341" x1="358" y1="451" x2="358" y2="215.024" gradientUnits="userSpaceOnUse">
<stop offset="0.29" stop-color="#475B6E"/>
<stop offset="0.62" stop-color="#526272" stop-opacity="0.8"/>
<stop offset="0.97" stop-color="#5C6977" stop-opacity="0.6"/>
</linearGradient>
<linearGradient id="paint26_linear_2002_341" x1="256" y1="91.9995" x2="256" y2="70.6245" gradientUnits="userSpaceOnUse">
<stop stop-color="#475B6E"/>
<stop offset="0.24" stop-color="#526272" stop-opacity="0.8"/>
<stop offset="0.49" stop-color="#5C6977" stop-opacity="0.6"/>
</linearGradient>
<linearGradient id="paint27_linear_2002_341" x1="255" y1="92.0001" x2="255" y2="72.9591" gradientUnits="userSpaceOnUse">
<stop offset="0.14" stop-color="#8A8B8A"/>
<stop offset="0.47" stop-color="#969996"/>
<stop offset="0.8" stop-color="#A3A7A3"/>
</linearGradient>
<linearGradient id="paint28_linear_2002_341" x1="255" y1="93.0001" x2="255" y2="71.5361" gradientUnits="userSpaceOnUse">
<stop stop-color="#484A4A"/>
<stop offset="0.22" stop-color="#4F5253"/>
<stop offset="0.43" stop-color="#55595B"/>
<stop offset="0.78" stop-color="#64696A"/>
<stop offset="1" stop-color="#747978"/>
</linearGradient>
<linearGradient id="paint29_linear_2002_341" x1="255" y1="92.0004" x2="255.087" y2="79.4024" gradientUnits="userSpaceOnUse">
<stop stop-color="#484A4A"/>
<stop offset="0.09" stop-color="#4F5253"/>
<stop offset="0.38" stop-color="#55595B"/>
<stop offset="0.68" stop-color="#64696A"/>
<stop offset="0.87" stop-color="#747978"/>
</linearGradient>
<linearGradient id="paint30_linear_2002_341" x1="255" y1="93.0001" x2="255" y2="71.5361" gradientUnits="userSpaceOnUse">
<stop stop-color="#484A4A"/>
<stop offset="0.22" stop-color="#4F5253"/>
<stop offset="0.43" stop-color="#55595B"/>
<stop offset="0.78" stop-color="#64696A"/>
<stop offset="1" stop-color="#747978"/>
</linearGradient>
<linearGradient id="paint31_linear_2002_341" x1="256" y1="457.001" x2="256" y2="431.141" gradientUnits="userSpaceOnUse">
<stop offset="0.51" stop-color="#4D6477"/>
<stop offset="0.76" stop-color="#3F576F" stop-opacity="0.5"/>
<stop offset="1" stop-color="#314B68" stop-opacity="0"/>
</linearGradient>
<linearGradient id="paint32_linear_2002_341" x1="255" y1="470" x2="255" y2="205.928" gradientUnits="userSpaceOnUse">
<stop offset="0.56" stop-color="#0A0D0F"/>
<stop offset="0.7" stop-color="#0E1215"/>
<stop offset="0.85" stop-color="#11171C"/>
</linearGradient>
<radialGradient id="paint33_radial_2002_341" cx="0" cy="0" r="1" gradientUnits="userSpaceOnUse" gradientTransform="translate(256.056 284.32) scale(15.5983 108.798)">
<stop/>
<stop offset="0.36" stop-color="#040402" stop-opacity="0.5"/>
<stop offset="1" stop-color="#080804" stop-opacity="0"/>
</radialGradient>
<radialGradient id="paint34_radial_2002_341" cx="0" cy="0" r="1" gradientUnits="userSpaceOnUse" gradientTransform="translate(192.196 344.762) rotate(-24.116) scale(15.5788 96.0882)">
<stop/>
<stop offset="0.45" stop-color="#040402" stop-opacity="0.5"/>
<stop offset="1" stop-color="#080804" stop-opacity="0"/>
</radialGradient>
<radialGradient id="paint35_radial_2002_341" cx="0" cy="0" r="1" gradientUnits="userSpaceOnUse" gradientTransform="translate(321 345.017) rotate(24.522) scale(14.5742 87.0674)">
<stop/>
<stop offset="0.45" stop-color="#040402" stop-opacity="0.5"/>
<stop offset="1" stop-color="#080804" stop-opacity="0"/>
</radialGradient>
<radialGradient id="paint36_radial_2002_341" cx="0" cy="0" r="1" gradientUnits="userSpaceOnUse" gradientTransform="translate(256.726 227.763) scale(135.718 18.6802)">
<stop/>
<stop offset="0.5" stop-color="#040402" stop-opacity="0.5"/>
<stop offset="1" stop-color="#080804" stop-opacity="0"/>
</radialGradient>
<radialGradient id="paint37_radial_2002_341" cx="0" cy="0" r="1" gradientUnits="userSpaceOnUse" gradientTransform="translate(259.011 282.306) scale(99.0005 20.7327)">
<stop/>
<stop offset="0.36" stop-color="#040402" stop-opacity="0.5"/>
<stop offset="1" stop-color="#080804" stop-opacity="0"/>
</radialGradient>
<radialGradient id="paint38_radial_2002_341" cx="0" cy="0" r="1" gradientUnits="userSpaceOnUse" gradientTransform="translate(262.03 335.039) scale(96.017 23.8775)">
<stop/>
<stop offset="0.36" stop-color="#040402" stop-opacity="0.5"/>
<stop offset="1" stop-color="#080804" stop-opacity="0"/>
</radialGradient>
<radialGradient id="paint39_radial_2002_341" cx="0" cy="0" r="1" gradientUnits="userSpaceOnUse" gradientTransform="translate(233.575 350.675) scale(19.7537 25.4257)">
<stop stop-color="#F9F7F8"/>
<stop offset="0.43" stop-color="#FBFBFB" stop-opacity="0.5"/>
<stop offset="0.84" stop-color="#FEFFFF" stop-opacity="0"/>
</radialGradient>
<linearGradient id="paint40_linear_2002_341" x1="215.25" y1="292.25" x2="212.615" y2="260.997" gradientUnits="userSpaceOnUse">
<stop/>
<stop offset="0.21" stop-color="#040402" stop-opacity="0.5"/>
<stop offset="1" stop-color="#080804" stop-opacity="0"/>
</linearGradient>
<linearGradient id="paint41_linear_2002_341" x1="219.877" y1="339.552" x2="220.368" y2="312.301" gradientUnits="userSpaceOnUse">
<stop/>
<stop offset="0.21" stop-color="#040402" stop-opacity="0.5"/>
<stop offset="1" stop-color="#080804" stop-opacity="0"/>
</linearGradient>
<radialGradient id="paint42_radial_2002_341" cx="0" cy="0" r="1" gradientUnits="userSpaceOnUse" gradientTransform="translate(221.735 247.859) rotate(-9.754) scale(33.9713 28.029)">
<stop stop-color="#F9F7F8"/>
<stop offset="0.47" stop-color="#FBFBFB" stop-opacity="0.5"/>
<stop offset="0.91" stop-color="#FEFFFF" stop-opacity="0"/>
</radialGradient>
<radialGradient id="paint43_radial_2002_341" cx="0" cy="0" r="1" gradientUnits="userSpaceOnUse" gradientTransform="translate(228.323 296.095) rotate(-5.982) scale(21.0467 14.1228)">
<stop stop-color="#F9F7F8"/>
<stop offset="0.47" stop-color="#FBFBFB" stop-opacity="0.5"/>
<stop offset="0.91" stop-color="#FEFFFF" stop-opacity="0"/>
</radialGradient>
<linearGradient id="paint44_linear_2002_341" x1="298.844" y1="292.25" x2="299.979" y2="261.502" gradientUnits="userSpaceOnUse">
<stop/>
<stop offset="0.21" stop-color="#040402" stop-opacity="0.5"/>
<stop offset="1" stop-color="#080804" stop-opacity="0"/>
</linearGradient>
<linearGradient id="paint45_linear_2002_341" x1="291.366" y1="340.698" x2="292.081" y2="311.106" gradientUnits="userSpaceOnUse">
<stop/>
<stop offset="0.21" stop-color="#040402" stop-opacity="0.5"/>
<stop offset="1" stop-color="#080804" stop-opacity="0"/>
</linearGradient>
<radialGradient id="paint46_radial_2002_341" cx="0" cy="0" r="1" gradientUnits="userSpaceOnUse" gradientTransform="translate(290.974 248.068) rotate(9.561) scale(37.6233 29.3725)">
<stop stop-color="#F9F7F8"/>
<stop offset="0.47" stop-color="#FBFBFB" stop-opacity="0.5"/>
<stop offset="0.91" stop-color="#FEFFFF" stop-opacity="0"/>
</radialGradient>
<radialGradient id="paint47_radial_2002_341" cx="0" cy="0" r="1" gradientUnits="userSpaceOnUse" gradientTransform="translate(283.259 296.465) rotate(7.78) scale(25.4278 18.4761)">
<stop stop-color="#F9F7F8"/>
<stop offset="0.47" stop-color="#FBFBFB" stop-opacity="0.5"/>
<stop offset="0.91" stop-color="#FEFFFF" stop-opacity="0"/>
</radialGradient>
<radialGradient id="paint48_radial_2002_341" cx="0" cy="0" r="1" gradientUnits="userSpaceOnUse" gradientTransform="translate(278.904 350.815) scale(25.3467 25.3467)">
<stop stop-color="#F9F7F8"/>
<stop offset="0.43" stop-color="#FBFBFB" stop-opacity="0.5"/>
<stop offset="0.84" stop-color="#FEFFFF" stop-opacity="0"/>
</radialGradient>
<radialGradient id="paint49_radial_2002_341" cx="0" cy="0" r="1" gradientUnits="userSpaceOnUse" gradientTransform="translate(256.117 175.601) scale(124.492 59.9068)">
<stop stop-color="#F9F7F8"/>
<stop offset="0.58" stop-color="#FBFBFB" stop-opacity="0.5"/>
<stop offset="0.96" stop-color="#FEFFFF" stop-opacity="0"/>
</radialGradient>
<radialGradient id="paint50_radial_2002_341" cx="0" cy="0" r="1" gradientUnits="userSpaceOnUse" gradientTransform="translate(318.344 177.297) scale(52.0627 52.0627)">
<stop stop-color="#F9F7F8"/>
<stop offset="0.58" stop-color="#FBFBFB" stop-opacity="0.5"/>
<stop offset="0.96" stop-color="#FEFFFF" stop-opacity="0"/>
</radialGradient>
<radialGradient id="paint51_radial_2002_341" cx="0" cy="0" r="1" gradientUnits="userSpaceOnUse" gradientTransform="translate(193.33 178.28) scale(59.1968)">
<stop stop-color="#F9F7F8"/>
<stop offset="0.58" stop-color="#FBFBFB" stop-opacity="0.5"/>
<stop offset="0.96" stop-color="#FEFFFF" stop-opacity="0"/>
</radialGradient>
<linearGradient id="paint52_linear_2002_341" x1="249.424" y1="207.304" x2="249.424" y2="175.765" gradientUnits="userSpaceOnUse">
<stop offset="0.49" stop-color="#222B33"/>
<stop offset="0.74" stop-color="#29343D"/>
<stop offset="1" stop-color="#303C47"/>
</linearGradient>
<linearGradient id="paint53_linear_2002_341" x1="251.424" y1="232.181" x2="249.353" y2="141.315" gradientUnits="userSpaceOnUse">
<stop offset="0.14" stop-color="#8A8B8A"/>
<stop offset="0.47" stop-color="#C5C5C5"/>
<stop offset="0.8" stop-color="white"/>
</linearGradient>
<linearGradient id="paint54_linear_2002_341" x1="193.525" y1="178.629" x2="225.54" y2="183.523" gradientUnits="userSpaceOnUse">
<stop stop-color="white" stop-opacity="0"/>
<stop offset="0.02" stop-color="white" stop-opacity="0.5"/>
<stop offset="0.05" stop-color="white"/>
<stop offset="0.51" stop-color="white"/>
<stop offset="0.98" stop-color="white"/>
<stop offset="0.99" stop-color="white" stop-opacity="0.505"/>
<stop offset="1" stop-color="white" stop-opacity="0.01"/>
</linearGradient>
<linearGradient id="paint55_linear_2002_341" x1="193.525" y1="178.629" x2="225.54" y2="183.523" gradientUnits="userSpaceOnUse">
<stop stop-color="white"/>
<stop offset="0.5" stop-color="white"/>
<stop offset="1" stop-color="white"/>
</linearGradient>
<linearGradient id="paint56_linear_2002_341" x1="92.9999" y1="457" x2="92.9999" y2="322.034" gradientUnits="userSpaceOnUse">
<stop stop-color="#161C23"/>
<stop offset="0.4" stop-color="#1D242D"/>
<stop offset="0.67" stop-color="#232D36"/>
</linearGradient>
<linearGradient id="paint57_linear_2002_341" x1="67.9997" y1="460" x2="67.9997" y2="279.869" gradientUnits="userSpaceOnUse">
<stop offset="0.51" stop-color="#4D6477" stop-opacity="0.5"/>
<stop offset="0.76" stop-color="#4A6072" stop-opacity="0.75"/>
<stop offset="1" stop-color="#475B6E"/>
</linearGradient>
<linearGradient id="paint58_linear_2002_341" x1="61.9998" y1="449" x2="112.973" y2="449" gradientUnits="userSpaceOnUse">
<stop offset="0.51" stop-color="#4D6477"/>
<stop offset="0.76" stop-color="#3F576F" stop-opacity="0.5"/>
<stop offset="1" stop-color="#314B68" stop-opacity="0"/>
</linearGradient>
<linearGradient id="paint59_linear_2002_341" x1="149.926" y1="310.833" x2="90.5848" y2="301.625" gradientUnits="userSpaceOnUse">
<stop/>
<stop offset="0.5" stop-color="#040402" stop-opacity="0.5"/>
<stop offset="1" stop-color="#080804" stop-opacity="0"/>
</linearGradient>
<linearGradient id="paint60_linear_2002_341" x1="34.1247" y1="287.625" x2="135.174" y2="447.186" gradientUnits="userSpaceOnUse">
<stop stop-color="#1E262D"/>
<stop offset="0.22" stop-color="#141A1E"/>
<stop offset="0.42" stop-color="#0A0D0F"/>
</linearGradient>
<radialGradient id="paint61_radial_2002_341" cx="0" cy="0" r="1" gradientUnits="userSpaceOnUse" gradientTransform="translate(96.2339 355.929) rotate(3.088) scale(23.4156 52.6051)">
<stop stop-color="#F9F7F8"/>
<stop offset="0.47" stop-color="#FBFBFB" stop-opacity="0.5"/>
<stop offset="0.91" stop-color="#FEFFFF" stop-opacity="0"/>
</radialGradient>
<linearGradient id="paint62_linear_2002_341" x1="-3.54501e-05" y1="0.000179559" x2="100" y2="0.000179559" gradientUnits="userSpaceOnUse">
<stop stop-color="#0A0D0F"/>
<stop offset="0.5" stop-color="#0A0D0F"/>
<stop offset="1" stop-color="#0A0D0F"/>
</linearGradient>
<linearGradient id="paint63_linear_2002_341" x1="418" y1="457" x2="418" y2="322.034" gradientUnits="userSpaceOnUse">
<stop stop-color="#161C23"/>
<stop offset="0.4" stop-color="#1D242D"/>
<stop offset="0.67" stop-color="#232D36"/>
</linearGradient>
<linearGradient id="paint64_linear_2002_341" x1="443" y1="460" x2="443" y2="279.868" gradientUnits="userSpaceOnUse">
<stop offset="0.51" stop-color="#4D6477" stop-opacity="0.5"/>
<stop offset="0.76" stop-color="#4A6072" stop-opacity="0.75"/>
<stop offset="1" stop-color="#475B6E"/>
</linearGradient>
<linearGradient id="paint65_linear_2002_341" x1="398" y1="449" x2="448.973" y2="449" gradientUnits="userSpaceOnUse">
<stop offset="0.51" stop-color="#4D6477"/>
<stop offset="0.76" stop-color="#3F576F" stop-opacity="0.5"/>
<stop offset="1" stop-color="#314B68" stop-opacity="0"/>
</linearGradient>
<linearGradient id="paint66_linear_2002_341" x1="361.271" y1="317.333" x2="429.362" y2="308.292" gradientUnits="userSpaceOnUse">
<stop/>
<stop offset="0.5" stop-color="#040402" stop-opacity="0.5"/>
<stop offset="1" stop-color="#080804" stop-opacity="0"/>
</linearGradient>
<linearGradient id="paint67_linear_2002_341" x1="376" y1="447" x2="466.175" y2="290.814" gradientUnits="userSpaceOnUse">
<stop offset="0.58" stop-color="#0A0D0F"/>
<stop offset="0.78" stop-color="#141A1E"/>
<stop offset="1" stop-color="#1E262D"/>
</linearGradient>
<radialGradient id="paint68_radial_2002_341" cx="0" cy="0" r="1" gradientUnits="userSpaceOnUse" gradientTransform="translate(416.495 355.722) rotate(-1.658) scale(17.5202 50.8615)">
<stop stop-color="#F9F7F8"/>
<stop offset="0.47" stop-color="#FBFBFB" stop-opacity="0.5"/>
<stop offset="0.91" stop-color="#FEFFFF" stop-opacity="0"/>
</radialGradient>
<radialGradient id="paint69_radial_2002_341" cx="0" cy="0" r="1" gradientUnits="userSpaceOnUse" gradientTransform="translate(403.083 238.411) rotate(-11.235) scale(19.7778 48.7187)">
<stop stop-color="#F9F7F8"/>
<stop offset="0.47" stop-color="#FBFBFB" stop-opacity="0.5"/>
<stop offset="0.91" stop-color="#FEFFFF" stop-opacity="0"/>
</radialGradient>
<clipPath id="clip0_2002_341">
<rect width="512" height="512" fill="white"/>
</clipPath>
</defs>
</svg>
